<svg xmlns="http://www.w3.org/2000/svg" viewBox="0 0 136.908 118.074">
  <defs>
    <style>
      .cls-1 {
        fill: #1fac24;
      }
    </style>
  </defs>
  <g id="money" transform="translate(-18.6 11)">
    <g id="Group_20" data-name="Group 20" transform="translate(18.6 102.464)">
      <g id="Group_19" data-name="Group 19">
        <path id="Path_17" data-name="Path 17" class="cls-1" d="M71.938,452.676a2.3,2.3,0,1,0,.676,1.63A2.321,2.321,0,0,0,71.938,452.676Z" transform="translate(-68.003 -452.001)"/>
      </g>
    </g>
    <g id="Group_22" data-name="Group 22" transform="translate(107.219 39.767)">
      <g id="Group_21" data-name="Group 21">
        <path id="Path_18" data-name="Path 18" class="cls-1" d="M456.389,180.683a2.3,2.3,0,1,0,.677,1.63A2.317,2.317,0,0,0,456.389,180.683Z" transform="translate(-452.454 -180.008)"/>
      </g>
    </g>
    <g id="Group_24" data-name="Group 24" transform="translate(37.489 -11)">
      <g id="Group_23" data-name="Group 23">
        <path id="Path_19" data-name="Path 19" class="cls-1" d="M117.35.675A2.306,2.306,0,0,0,115.719,0l-56.7,0a2.305,2.305,0,0,0-2.3,2.305V8.9l-21.85,5.855a2.3,2.3,0,0,0-1.63,2.823L44.555,59.84l-9.8,9.8a6.912,6.912,0,0,0-5.708-3.018H6.922A6.923,6.923,0,0,0,.007,73.533v37.572a6.923,6.923,0,0,0,6.915,6.915H29.051a6.927,6.927,0,0,0,6.711-5.251l2.741,2.39a11.613,11.613,0,0,0,7.634,2.861H115.72a2.305,2.305,0,0,0,2.305-2.305V2.305A2.307,2.307,0,0,0,117.35.675ZM31.355,111.106a2.308,2.308,0,0,1-2.305,2.305H6.922a2.308,2.308,0,0,1-2.305-2.305V73.534a2.308,2.308,0,0,1,2.305-2.305h8.759V97.782a2.305,2.305,0,1,0,4.61,0V71.229H29.05a2.308,2.308,0,0,1,2.305,2.305v37.572ZM38.28,18.611l18.43-4.938v8.542l-1.545.414a2.3,2.3,0,0,0-1.63,2.823,6.214,6.214,0,0,1-4.389,7.6,2.305,2.305,0,0,0-1.629,2.828L56.5,69.152H51.877l-2.384-9.327a2.3,2.3,0,0,0-.386-.808Zm18.43,14.174V52.236l-4.2-15.567A10.8,10.8,0,0,0,56.711,32.785Zm33.116,80.626H46.136a7,7,0,0,1-4.6-1.725l-5.567-4.855V74.95L46.029,64.886l1.825,7.141a2.3,2.3,0,0,0,2.233,1.734l45.319,0a3.227,3.227,0,0,1,0,6.454H72.185a2.305,2.305,0,0,0,0,4.61h30.437a3.227,3.227,0,1,1,0,6.454H72.185a2.305,2.305,0,0,0,0,4.61h25.5a3.227,3.227,0,1,1,0,6.454h-25.5a2.305,2.305,0,0,0,0,4.61H89.826a3.227,3.227,0,1,1,0,6.453Zm23.588,0H96.966a7.809,7.809,0,0,0,0-6.454h.724a7.832,7.832,0,0,0,7.005-11.345,7.831,7.831,0,0,0,4.217-12.226V54.171a2.305,2.305,0,1,0-4.61,0V80.4a7.839,7.839,0,0,0-1.68-.183h-.076a7.832,7.832,0,0,0-7.139-11.064H91.7a11.032,11.032,0,1,0-8.667,0h-12.6V25.324A10.851,10.851,0,0,0,78.7,17.06H96.037a10.851,10.851,0,0,0,8.264,8.264v7.167a2.305,2.305,0,1,0,4.61,0V23.266a2.305,2.305,0,0,0-2.305-2.305,6.213,6.213,0,0,1-6.206-6.206,2.305,2.305,0,0,0-2.305-2.305H76.64a2.305,2.305,0,0,0-2.305,2.305,6.213,6.213,0,0,1-6.206,6.206,2.305,2.305,0,0,0-2.305,2.305V69.154h-4.5V4.613l52.094,0ZM87.368,65.432a6.421,6.421,0,1,1,6.421-6.422A6.429,6.429,0,0,1,87.368,65.432Z" transform="translate(-0.007)"/>
      </g>
    </g>
  </g>
</svg>
