<svg xmlns="http://www.w3.org/2000/svg" viewBox="0 0 242.604 220.77">
  <defs>
    <style>
      .cls-1 {
        fill: #575488;
      }

      .cls-2 {
        fill: #5cd837;
      }
    </style>
  </defs>
  <g id="icon" transform="translate(0 -0.706)">
    <g id="Group_2" data-name="Group 2" transform="translate(0 0.706)">
      <path id="Path_4" data-name="Path 4" class="cls-1" d="M4.268,68.79a12.865,12.865,0,0,0,3.216,7C10.607,96.6,28,115.913,43.908,115.913c18.537,0,35.42-20.9,38.666-40.073a12.7,12.7,0,0,0,3.278-7.05c1.051-3.9,2.412-10.668.031-13.852a5.775,5.775,0,0,0-.387-.448c2.242-8.179,5.071-25.092-5.056-36.61-.9-1.144-6.586-7.931-18.723-11.518l-5.8-1.994A92.677,92.677,0,0,0,40.105.718a4.071,4.071,0,0,0-1.3.108,6.527,6.527,0,0,1-2.35.278c-2.288-.325-5.72.85-6.323,1.082-.788.325-19.295,7.73-24.907,24.969-.526,1.391-2.767,8.72.216,26.685a5.145,5.145,0,0,0-1.19,1.129C1.841,58.122,3.2,64.894,4.268,68.79Z" transform="translate(42.051 -0.706)"/>
      <path id="Path_5" data-name="Path 5" class="cls-1" d="M120.344,101.947c-3.417-1.917-7.127-3.757-11.085-5.5-1.917-.85-3.865-1.654-5.8-2.412-1.515-.572-3.309-1.314-4.561-1.639L80.564,87.445,114.871,17.6l14.7,9.276c3.108,1.948,5.4,3.6,7.9,5.442L138,32.7q3.734,2.76,7.328,5.674a182.437,182.437,0,0,1,14.1,12.569c.325.325.634.618.959.943,1.438-1.592,2.845-3.015,4.252-4.545a60.246,60.246,0,0,0-6.633-14.224s-3.772-5.148-12.724-8.581c0,0-.758-.232-1.917-.618A144.026,144.026,0,0,0,127.842,17.8c-1.623-.587-3.046-1.16-4.329-1.716-5.411-2.675-9.91-5.689-10.838-8.534,0,0,3.123,30.225-23.3,30.936l-3.68-.17C61.749,36.178,60.156,7.484,60.156,7.484c-2.5,7.869-32.621,17.022-32.621,17.022C18.583,27.938,14.8,33.1,14.8,33.1,1.561,52.737,0,96.428,0,96.428c.17,9.987,4.484,11.023,4.484,11.023,30.441,13.59,78.2,15.986,78.2,15.986,2.582.062,4.978-.077,7.375-.216l.062.247a332.143,332.143,0,0,0,47.757-6.54l-2.984-3.911C132.465,109.816,127.038,105.688,120.344,101.947Z" transform="translate(0 97.302)"/>
      <path id="Path_6" data-name="Path 6" class="cls-1" d="M7.222,9.176c.325-.417.68-.835,1.02-1.3A3.009,3.009,0,0,1,8.15,7.46C7.856,8.063,7.516,8.573,7.222,9.176Z" transform="translate(104.433 96.955)"/>
      <path id="Path_7" data-name="Path 7" class="cls-1" d="M4.03,7.785,3.953,7.46l-.062.34c.015-.062.077-.124.093-.186A.463.463,0,0,1,4.03,7.785Z" transform="translate(56.265 96.955)"/>
      <path id="Path_8" data-name="Path 8" class="cls-2" d="M118.3,21.851a222.947,222.947,0,0,0-24.458,20.33C86.127,49.509,78.815,57.224,71.78,65.186c-2.613,2.968-5.148,5.968-7.668,8.982a.626.626,0,0,1-.077-.139,121.288,121.288,0,0,0-11.9-13.481c-4.174-4.112-8.5-7.916-12.956-11.533-2.242-1.793-4.5-3.556-6.8-5.287-2.4-1.732-4.5-3.293-7.436-5.148L6.661,75.761c1.67.448,4.1,1.391,6.153,2.2,2.18.835,4.313,1.732,6.447,2.675,4.267,1.886,8.426,3.942,12.4,6.153,7.854,4.391,15.167,9.74,19.341,15.2l14.053,18.429,8.086-17.532c4.066-8.781,8.936-17.965,13.93-26.716,5.04-8.812,10.42-17.455,16.249-25.788a210.465,210.465,0,0,1,19.063-23.809c6.988-7.375,14.7-14.239,23.9-19.109C136.3,10.425,126.958,15.79,118.3,21.851Z" transform="translate(96.321 96.912)"/>
    </g>
  </g>
</svg>
