<svg xmlns="http://www.w3.org/2000/svg" viewBox="0 0 249.199 240.891">
  <defs>
    <style>
      .cls-1 {
        fill: #27c427;
      }

      .cls-2 {
        fill: #cfd52f;
      }
    </style>
  </defs>
  <g id="money" transform="translate(0 -7.982)">
    <g id="Group_4" data-name="Group 4" transform="translate(0 87.102)">
      <g id="Group_3" data-name="Group 3">
        <path id="Path_9" data-name="Path 9" class="cls-1" d="M211.738,160.017H3.568A3.564,3.564,0,0,0,0,163.577V263.5a3.564,3.564,0,0,0,3.56,3.568H145.118a3.568,3.568,0,1,0,0-7.136H7.136V167.153H208.162v8.922a3.564,3.564,0,0,0,3.56,3.568h.008a3.564,3.564,0,0,0,3.568-3.56v-12.5A3.564,3.564,0,0,0,211.738,160.017Z" transform="translate(0 -160.017)"/>
      </g>
    </g>
    <g id="Group_6" data-name="Group 6" transform="translate(8.324 32.981)">
      <g id="Group_5" data-name="Group 5">
        <path id="Path_10" data-name="Path 10" class="cls-1" d="M195.2,93.575,28.675,56.105a3.568,3.568,0,0,0-4.267,2.706L16.081,96.281a3.57,3.57,0,0,0,6.969,1.549L30.6,63.853l163.041,36.682a3.365,3.365,0,0,0,.787.087,3.568,3.568,0,0,0,.779-7.048Z" transform="translate(-15.995 -56.019)"/>
      </g>
    </g>
    <g id="Group_8" data-name="Group 8" transform="translate(54.057 7.982)">
      <g id="Group_7" data-name="Group 7">
        <path id="Path_11" data-name="Path 11" class="cls-1" d="M217.13,49.891,117.212,8.258a3.58,3.58,0,0,0-4.58,1.7l-8.326,16.653a3.58,3.58,0,0,0,6.3,3.406q.055-.1.1-.209v.008l6.832-13.672,96.833,40.346a3.577,3.577,0,1,0,2.756-6.6Z" transform="translate(-103.875 -7.982)"/>
      </g>
    </g>
    <g id="Group_10" data-name="Group 10" transform="translate(133.224 103.755)">
      <g id="Group_9" data-name="Group 9">
        <path id="Path_12" data-name="Path 12" class="cls-1" d="M292.612,192.017H259.568a3.568,3.568,0,0,0,0,7.136h33.044a3.568,3.568,0,0,0,0-7.136Z" transform="translate(-256 -192.017)"/>
      </g>
    </g>
    <g id="Group_12" data-name="Group 12" transform="translate(66.849 103.992)">
      <g id="Group_11" data-name="Group 11">
        <path id="Path_13" data-name="Path 13" class="cls-1" d="M165.093,192.473a36.637,36.637,0,1,0,36.637,36.637A36.636,36.636,0,0,0,165.093,192.473Zm0,66.612a29.975,29.975,0,1,1,29.975-29.975A29.975,29.975,0,0,1,165.093,259.085Z" transform="translate(-128.456 -192.473)"/>
      </g>
    </g>
    <g id="Group_14" data-name="Group 14" transform="translate(157.608 115.649)">
      <g id="Group_13" data-name="Group 13">
        <path id="Path_14" data-name="Path 14" class="cls-2" d="M348.652,214.873c-22.065,0-45.8,5.212-45.8,16.653v99.918c0,11.441,23.73,16.653,45.8,16.653s45.8-5.212,45.8-16.653V231.526C394.447,220.085,370.717,214.873,348.652,214.873Zm37.469,116.508c-.629,2.311-13.114,8.389-37.469,8.389s-36.841-6.078-37.469-8.326V324.9c8.859,4.463,23.493,6.545,37.469,6.545s28.614-2.1,37.469-6.549Zm0-16.653c-.629,2.311-13.114,8.389-37.469,8.389s-36.841-6.078-37.469-8.326v-6.545c8.859,4.463,23.493,6.545,37.469,6.545s28.614-2.1,37.469-6.549Zm0-16.653c-.629,2.311-13.114,8.389-37.469,8.389s-36.841-6.078-37.469-8.326v-6.545c8.859,4.463,23.493,6.545,37.469,6.545s28.614-2.1,37.469-6.549Zm0-16.653c-.629,2.311-13.114,8.389-37.469,8.389s-36.841-6.078-37.469-8.326V274.94c8.859,4.463,23.493,6.545,37.469,6.545s28.614-2.1,37.469-6.549Zm0-16.653c-.629,2.311-13.114,8.389-37.469,8.389s-36.841-6.078-37.469-8.327v-6.545c8.859,4.442,23.493,6.545,37.469,6.545s28.614-2.1,37.469-6.549Zm0-16.653c-.629,2.311-13.114,8.389-37.469,8.389s-36.841-6.078-37.469-8.326v-6.545c8.859,4.442,23.493,6.545,37.469,6.545s28.614-2.1,37.469-6.549Zm-37.469-8.264c-24.318,0-36.8-6.062-37.469-8.252v-.025c.67-2.319,13.152-8.376,37.469-8.376,24.147,0,36.637,5.97,37.469,8.326C385.288,233.882,372.8,239.852,348.652,239.852Z" transform="translate(-302.856 -214.873)"/>
      </g>
    </g>
    <g id="Group_16" data-name="Group 16" transform="translate(16.649 103.755)">
      <g id="Group_15" data-name="Group 15">
        <path id="Path_15" data-name="Path 15" class="cls-1" d="M85.523,258.625H54.053L39.132,242.3V215.244L55.61,199.153H85.523a3.568,3.568,0,1,0,0-7.136H54.161a3.571,3.571,0,0,0-2.5,1.012l-18.6,18.139a4.472,4.472,0,0,0-1.074,2.914v29.609a3.57,3.57,0,0,0,.933,2.406L49.84,264.6a3.567,3.567,0,0,0,2.635,1.162H85.523a3.568,3.568,0,1,0,0-7.136Z" transform="translate(-31.992 -192.017)"/>
      </g>
    </g>
    <g id="Group_18" data-name="Group 18" transform="translate(90.996 121.894)">
      <g id="Group_17" data-name="Group 17">
        <path id="Path_16" data-name="Path 16" class="cls-1" d="M189.427,241.444h-4.163c-1.295,0-2.082-.724-2.082-1.041s.787-1.041,2.082-1.041h10.408a4.163,4.163,0,1,0,0-8.326h-4.163a4.163,4.163,0,0,0-8.326,0v.187a9.692,9.692,0,0,0-8.326,9.159,9.942,9.942,0,0,0,10.408,9.388h4.163c1.295,0,2.082.724,2.082,1.041s-.787,1.041-2.082,1.041H179.019a4.163,4.163,0,1,0,0,8.326h4.163a4.163,4.163,0,1,0,8.326,0v-.187a9.692,9.692,0,0,0,8.326-9.159A9.942,9.942,0,0,0,189.427,241.444Z" transform="translate(-174.856 -226.873)"/>
      </g>
    </g>
  </g>
</svg>
