<svg xmlns="http://www.w3.org/2000/svg" viewBox="0 0 110.547 131.981">
  <defs>
    <style>
      .cls-1 {
        fill: #575488;
      }
    </style>
  </defs>
  <g id="money-bag-with-dollar-symbol" transform="translate(-36.238 0)">
    <g id="Group_32" data-name="Group 32" transform="translate(36.238 0)">
      <g id="Group_25" data-name="Group 25" transform="translate(57.105 82.785)">
        <path id="Path_20" data-name="Path 20" class="cls-1" d="M229.1,276.66a7.8,7.8,0,0,0-2.19-1.592,26.426,26.426,0,0,0-5.548-1.96v14.683c3.075-.348,6.606-1.464,8.221-4.335h0a6.708,6.708,0,0,0,.61-4.583A4.611,4.611,0,0,0,229.1,276.66Z" transform="translate(-221.36 -273.108)"/>
      </g>
      <g id="Group_26" data-name="Group 26" transform="translate(64.716 93.132)">
        <path id="Path_21" data-name="Path 21" class="cls-1" d="M242.6,299.928l.016-.028h0Z" transform="translate(-242.604 -299.9)"/>
      </g>
      <g id="Group_27" data-name="Group 27" transform="translate(44.935 64.457)">
        <path id="Path_22" data-name="Path 22" class="cls-1" d="M182.433,215.747a5.507,5.507,0,0,0-.952,2.581,6.19,6.19,0,0,0,.315,2.853,4.577,4.577,0,0,0,1.777,1.955,13.875,13.875,0,0,0,2.64,1.363c.771.31,1.637.607,2.571.893V212.106C186.424,212.61,183.845,213.685,182.433,215.747Z" transform="translate(-181.441 -212.106)"/>
      </g>
      <g id="Group_28" data-name="Group 28" transform="translate(64.724 93.034)">
        <path id="Path_23" data-name="Path 23" class="cls-1" d="M242.708,299.619c-.019.034-.04.07-.061.108h0C242.671,299.683,242.69,299.651,242.708,299.619Z" transform="translate(-242.647 -299.619)"/>
      </g>
      <g id="Group_29" data-name="Group 29" transform="translate(64.842 92.931)">
        <path id="Path_24" data-name="Path 24" class="cls-1" d="M243,299.251Z" transform="translate(-243.004 -299.244)"/>
      </g>
      <g id="Group_30" data-name="Group 30">
        <path id="Path_25" data-name="Path 25" class="cls-1" d="M98.493,28.717C108.632,20.283,115.406,1.282,111.237.451,105.7-.654,93.669,4.19,87.854,5.044c-8.247.986-17.228-8.856-22.27-3.37-4.1,4.46,2.939,20.681,13.95,27.747C46.684,45.409.51,125.674,81.063,131.5,192.521,139.557,136.71,44.3,98.493,28.717Zm9.572,63.3a11.579,11.579,0,0,1-4.521,7.88,17.385,17.385,0,0,1-9.252,3.236v3.457a3.251,3.251,0,0,1-1.107,2.432,3.331,3.331,0,0,1-3.54.518,3.273,3.273,0,0,1-1.909-2.95v-3.779c-.565-.106-1.126-.233-1.68-.383a16.119,16.119,0,0,1-8.02-4.886A14.289,14.289,0,0,1,75.566,93.5c-.153-.385-.289-.778-.409-1.175a5.977,5.977,0,0,1-.258-1.1,3.221,3.221,0,0,1,.357-1.829,3.289,3.289,0,0,1,6.017.481c.125.374.21.758.35,1.128a7.2,7.2,0,0,0,.5,1.066A8.287,8.287,0,0,0,83.565,93.9a9.787,9.787,0,0,0,4.172,2.251V83.3a23.45,23.45,0,0,1-8.6-3.679,9.927,9.927,0,0,1-2.9-3.452,10.717,10.717,0,0,1-1.013-4.648,10.982,10.982,0,0,1,.982-4.706,11.48,11.48,0,0,1,2.69-3.655,16.5,16.5,0,0,1,8.84-3.879V55.692a3.252,3.252,0,0,1,1.107-2.432,3.332,3.332,0,0,1,3.54-.518,3.274,3.274,0,0,1,1.909,2.95v3.57q.643.08,1.281.194a16.257,16.257,0,0,1,8.56,4.114,12.387,12.387,0,0,1,2.62,3.729,11.828,11.828,0,0,1,.463,1.188,7.156,7.156,0,0,1,.308,1.158,3.222,3.222,0,0,1-.273,1.85,3.29,3.29,0,0,1-6.03-.209c-.137-.355-.206-.73-.346-1.084a5.7,5.7,0,0,0-.536-1.022,6.219,6.219,0,0,0-1.549-1.608,10.688,10.688,0,0,0-4.5-1.741V78.122a41.935,41.935,0,0,1,5.6,1.646,13.072,13.072,0,0,1,6.833,5.3c-.232-.4-.458-.8.008.013s.239.416.009.018A11.485,11.485,0,0,1,108.066,92.018Z" transform="translate(-36.238 0)"/>
      </g>
      <g id="Group_31" data-name="Group 31" transform="translate(64.627 93.205)">
        <path id="Path_26" data-name="Path 26" class="cls-1" d="M242.4,300.169l-.06.107Z" transform="translate(-242.337 -300.169)"/>
      </g>
    </g>
  </g>
</svg>
