<svg xmlns="http://www.w3.org/2000/svg" viewBox="0 0 173.604 196.84">
  <defs>
    <style>
      .cls-1 {
        fill: #575488;
      }

      .cls-2 {
        fill: #46ecec;
      }
    </style>
  </defs>
  <g id="new-user" transform="translate(-367.122 417.84)">
    <g id="Group_1" data-name="Group 1" transform="translate(367.121 -417.84)">
      <path id="Path_1" data-name="Path 1" class="cls-1" d="M183.279,99.77c27.717,0,37.69-27.754,40.3-50.551C226.8,21.136,213.516,0,183.279,0s-43.52,21.135-40.3,49.219C145.591,72.016,155.561,99.772,183.279,99.77Z" transform="translate(-108.29)"/>
      <path id="Path_2" data-name="Path 2" class="cls-1" d="M171.718,312.12q1.338,0,2.658.076a21.187,21.187,0,0,0-4.632-4.875c-5.326-3.975-12.224-5.279-18.322-7.675A79.292,79.292,0,0,1,143.3,296a42.208,42.208,0,0,1-32.193,14.068A42.191,42.191,0,0,1,78.921,296a79.281,79.281,0,0,1-8.122,3.643c-6.1,2.4-13,3.7-18.322,7.675-9.211,6.875-11.591,22.341-13.462,32.89a189.128,189.128,0,0,0-2.883,26.441c-.234,6.852,3.148,7.813,8.881,9.881a165.966,165.966,0,0,0,22.049,6.086C81.47,385.661,96.322,388,111.11,388.1a177.113,177.113,0,0,0,21.483-1.554,47.485,47.485,0,0,1,39.125-74.429Z" transform="translate(-36.121 -200.798)"/>
      <path id="Path_3" data-name="Path 3" class="cls-2" d="M377.544,375.658a38.008,38.008,0,1,0,38.008,38.008A38.009,38.009,0,0,0,377.544,375.658Zm16.628,44.529H384.065v10.107a6.521,6.521,0,1,1-13.042,0V420.187H360.916a6.521,6.521,0,1,1,0-13.043h10.107V397.037a6.521,6.521,0,1,1,13.042,0v10.107h10.107a6.521,6.521,0,0,1,0,13.043Z" transform="translate(-241.948 -254.834)"/>
    </g>
  </g>
</svg>
