<svg xmlns="http://www.w3.org/2000/svg" viewBox="0 0 246.686 172.68">
  <defs>
    <style>
      .cls-1 {
        fill: #575488;
      }
    </style>
  </defs>
  <path id="users" class="cls-1" d="M37,106.006A24.669,24.669,0,1,0,12.334,81.337,24.691,24.691,0,0,0,37,106.006Zm172.68,0a24.669,24.669,0,1,0-24.669-24.669A24.691,24.691,0,0,0,209.683,106.006Zm12.334,12.334H197.349a24.6,24.6,0,0,0-17.384,7.169,56.38,56.38,0,0,1,28.947,42.168h25.44a12.321,12.321,0,0,0,12.334-12.334V143.009A24.691,24.691,0,0,0,222.017,118.34Zm-98.674,0a43.17,43.17,0,1,0-43.17-43.17A43.148,43.148,0,0,0,123.343,118.34Zm29.6,12.334h-3.2a59.6,59.6,0,0,1-52.806,0h-3.2a44.415,44.415,0,0,0-44.4,44.4v11.1a18.506,18.506,0,0,0,18.5,18.5H178.847a18.506,18.506,0,0,0,18.5-18.5v-11.1A44.415,44.415,0,0,0,152.945,130.674Zm-86.224-5.165a24.6,24.6,0,0,0-17.384-7.169H24.669A24.691,24.691,0,0,0,0,143.009v12.334a12.321,12.321,0,0,0,12.334,12.334h25.4a56.522,56.522,0,0,1,28.986-42.168Z" transform="translate(0 -32)"/>
</svg>
